<svg width="37" height="50" xmlns="http://www.w3.org/2000/svg"><g fill="none" fill-rule="evenodd"><path d="M7.25 47.8c.703.149 1.276.105 1.72-.131.443-.236.726-.648.85-1.235.075-.356.047-.68-.085-.973a1.412 1.412 0 00-.675-.683c.325-.064.589-.194.792-.39.203-.197.335-.439.395-.725.119-.562.023-1.024-.287-1.386-.276-.321-.708-.559-1.298-.713l-.23-.053-2.145-.453-1.32 6.261 2.283.481zm.636-3.652l-1.067-.224.371-1.76 1.058.224c.373.078.633.205.78.38.147.175.188.417.123.726-.06.281-.2.478-.423.592-.186.094-.412.124-.678.09l-.164-.028zm-.44 2.787l-1.208-.255.413-1.957 1.298.274c.662.155.925.557.788 1.208-.064.301-.21.516-.437.645-.195.11-.432.146-.71.11l-.144-.025zm5.623 1.908l.608-1.456 2.474.152.431 1.519 1.158.07-2.025-6.534-.996-.06-2.804 6.238 1.154.07zm2.826-2.218l-1.851-.113 1.088-2.593.763 2.706zm6.844 2.45c.726-.064 1.292-.306 1.697-.725.36-.372.56-.85.605-1.433l.009-.224-1.104.096c-.018.46-.128.798-.33 1.013-.202.215-.52.341-.955.379-.476.042-.853-.108-1.131-.448-.247-.303-.409-.743-.484-1.32l-.024-.224-.05-.565c-.053-.68.034-1.208.262-1.582.228-.374.582-.582 1.064-.624.414-.037.737.037.97.222.203.16.353.425.449.792l.038.164 1.103-.096c-.13-.692-.428-1.21-.89-1.555s-1.045-.486-1.749-.425c-.522.046-.972.21-1.348.493a2.418 2.418 0 00-.825 1.14 3.6 3.6 0 00-.196 1.363l.015.254.052.595c.06.586.215 1.091.463 1.517.25.425.578.741.985.948.408.207.866.288 1.374.244zm6.53-.915l-.46-1.942.528-.915 2.51 2.246 1.283-.304-3.267-2.889 1.66-3.306-1.308.31-1.306 2.612-.423.882-.692-2.92-1.082.255 1.474 6.227 1.082-.256z" fill="#FFF" fill-rule="nonzero"/><path d="M18.5 1.5A16.947 16.947 0 006.48 6.48 16.947 16.947 0 001.5 18.5c0 4.694 1.903 8.944 4.98 12.02A16.947 16.947 0 0018.5 35.5c4.694 0 8.944-1.903 12.02-4.98A16.947 16.947 0 0035.5 18.5c0-4.694-1.903-8.944-4.98-12.02A16.947 16.947 0 0018.5 1.5z" stroke="#000" stroke-width="3" fill="#FFF" fill-rule="nonzero"/><path d="M10 19.025c-.006.37.14.727.401.987l5.597 5.586a1.368 1.368 0 002.29-.613 1.372 1.372 0 00-.352-1.324l-3.278-3.284H25.64a1.36 1.36 0 000-2.723H14.628l3.308-3.312a1.373 1.373 0 00-.615-2.295 1.37 1.37 0 00-1.323.355L10.4 17.987a1.363 1.363 0 00-.401.97v.068z" fill="#FF7D00"/></g></svg>