<svg width="52" height="50" xmlns="http://www.w3.org/2000/svg"><g fill-rule="nonzero" fill="none"><path d="M1.581 43.755c.633.3 1.201.397 1.705.288.505-.109.871-.404 1.1-.886.142-.296.201-.585.18-.866-.023-.281-.13-.572-.32-.872-.192-.3-.48-.625-.867-.972-.386-.348-.643-.639-.772-.874-.128-.234-.142-.457-.041-.669.12-.251.303-.404.55-.458.249-.054.537-.003.865.153.352.167.582.382.69.642.108.26.09.542-.054.843l1 .476c.159-.333.213-.68.164-1.039a1.955 1.955 0 00-.441-.986 2.765 2.765 0 00-.97-.734c-.606-.288-1.17-.372-1.693-.25-.523.12-.896.414-1.117.88-.253.531-.195 1.087.174 1.669.193.303.49.635.888.997.4.361.655.653.768.876.113.222.11.46-.011.715a.759.759 0 01-.531.436c-.243.057-.54.003-.889-.163-.405-.192-.673-.43-.804-.713s-.12-.589.037-.917l-1.004-.478a1.769 1.769 0 00-.161 1.091c.064.365.235.709.512 1.03.277.322.624.582 1.042.78zm8.793 3.353l.267-.846-2.928-.927.594-1.877 2.505.793.266-.838-2.506-.793.534-1.684 2.899.918.27-.855-3.959-1.254-1.931 6.1 3.989 1.263zm5.475 1.26l.922-5.424 1.967.335.15-.884-5.004-.85-.15.883 1.95.332-.922 5.424 1.087.185zm7.452.805l.159-5.5 1.994.058.026-.896-5.074-.147-.026.897 1.977.057-.159 5.5 1.103.031zm5.996-.027l-.522-6.377-1.104.09.522 6.378 1.104-.09zm4.443-.577l-.914-4.447 3.707 3.873 1.09-.224-1.288-6.267-1.08.222.916 4.464-3.719-3.888-1.089.223 1.288 6.268 1.089-.224zm9.492-2.366a3.927 3.927 0 001.228-.708c.33-.289.55-.615.66-.979l-.858-2.297-2.272.85.295.79 1.235-.461.439 1.173c-.135.325-.468.588-1 .787-.486.182-.933.144-1.34-.112-.407-.256-.731-.707-.973-1.355l-.173-.46c-.235-.654-.294-1.195-.177-1.621.118-.427.41-.728.876-.903.721-.27 1.275-.065 1.66.613l1.02-.381c-.31-.59-.724-.977-1.24-1.16-.515-.182-1.107-.149-1.773.1-.777.29-1.287.772-1.53 1.443-.243.671-.195 1.46.143 2.365l.176.47c.22.561.514 1.015.882 1.36.369.346.789.56 1.261.643.472.083.96.031 1.461-.157zm7.111-3.101c.613-.338 1.023-.744 1.228-1.217.206-.473.18-.943-.077-1.41a1.694 1.694 0 00-.6-.65c-.241-.147-.54-.23-.895-.25-.356-.02-.787.026-1.295.137-.507.111-.894.15-1.16.118-.265-.032-.454-.151-.568-.357-.134-.243-.15-.482-.05-.714.1-.233.31-.438.628-.613.341-.188.65-.25.924-.186.275.064.493.243.654.535l.97-.535a1.798 1.798 0 00-.75-.738 1.955 1.955 0 00-1.057-.217 2.765 2.765 0 00-1.162.36c-.587.323-.985.733-1.191 1.229-.207.495-.186.969.063 1.42.284.516.77.793 1.458.832.358.02.801-.027 1.328-.14.526-.113.913-.15 1.16-.113.246.038.437.18.573.426.125.226.14.455.045.686-.095.231-.312.44-.65.627-.393.217-.743.296-1.05.237-.306-.058-.547-.246-.722-.564l-.974.537c.194.351.458.607.793.767.334.16.712.222 1.135.184a3.126 3.126 0 001.242-.391zM25.5 1.37c9.46 0 17.13 7.67 17.13 17.13 0 9.46-7.67 17.13-17.13 17.13-9.46 0-17.13-7.67-17.13-17.13 0-9.46 7.67-17.13 17.13-17.13zm-.019 11.83a5.28 5.28 0 100 10.561 5.28 5.28 0 000-10.56z" fill="#FFF"/><path d="M25.5 10.963a7.537 7.537 0 110 15.074 7.537 7.537 0 010-15.074zm-.019 3.558a3.96 3.96 0 100 7.92 3.96 3.96 0 000-7.92z" fill="#FF7D00"/><path d="M25.481 0C15.274 0 7 8.274 7 18.481c0 10.207 8.274 18.481 18.481 18.481 10.207 0 18.481-8.274 18.481-18.48A18.481 18.481 0 0025.482 0zm0 34.322c-8.749 0-15.84-7.092-15.84-15.84 0-8.75 7.091-15.842 15.84-15.842 8.749 0 15.841 7.092 15.841 15.841a15.841 15.841 0 01-15.84 15.841z" fill="#000"/><path d="M25.481 10.56a7.92 7.92 0 100 15.842 7.92 7.92 0 000-15.841zm0 13.201a5.28 5.28 0 110-10.56 5.28 5.28 0 010 10.56z" fill="#000"/><path d="M25.481 14.52a3.96 3.96 0 100 7.921 3.96 3.96 0 000-7.92zm0 6.601a2.64 2.64 0 110-5.28 2.64 2.64 0 010 5.28z" fill="#000"/></g></svg>