<svg xmlns="http://www.w3.org/2000/svg" viewBox="0 0 69 69"><defs/><g fill="none" fill-rule="nonzero"><path fill="#FFF" d="M34.5 2.556c17.642 0 31.944 14.302 31.944 31.944S52.142 66.444 34.5 66.444 2.556 52.142 2.556 34.5 16.858 2.556 34.5 2.556zm-.035 22.062c-5.439 0-9.847 4.408-9.847 9.847 0 5.438 4.408 9.847 9.847 9.847a9.847 9.847 0 009.847-9.847c0-5.439-4.409-9.847-9.847-9.847z"/><path fill="#FF7D00" d="M34.5 20.444c7.763 0 14.056 6.293 14.056 14.056 0 7.763-6.293 14.056-14.056 14.056-7.763 0-14.056-6.293-14.056-14.056 0-7.763 6.293-14.056 14.056-14.056zm-.035 6.636a7.385 7.385 0 100 14.77 7.385 7.385 0 000-14.77z"/><path fill="#000" d="M34.465 0C15.43 0 0 15.43 0 34.465 0 53.499 15.43 68.93 34.465 68.93c19.034 0 34.465-15.43 34.465-34.465A34.465 34.465 0 0034.465 0zm0 64.006c-16.315 0-29.541-13.226-29.541-29.541 0-16.315 13.226-29.541 29.54-29.541 16.316 0 29.542 13.226 29.542 29.54a29.541 29.541 0 01-29.541 29.542z"/><path fill="#000" d="M34.465 19.694c-8.158 0-14.77 6.613-14.77 14.77 0 8.158 6.612 14.771 14.77 14.771 8.157 0 14.77-6.613 14.77-14.77 0-8.158-6.613-14.77-14.77-14.77zm0 24.618c-5.439 0-9.847-4.409-9.847-9.847 0-5.439 4.408-9.847 9.847-9.847 5.438 0 9.847 4.408 9.847 9.847a9.847 9.847 0 01-9.847 9.847z"/><path fill="#000" d="M34.465 27.08a7.385 7.385 0 100 14.77 7.385 7.385 0 000-14.77zm0 12.308a4.924 4.924 0 110-9.847 4.924 4.924 0 010 9.847z"/></g></svg>